<svg xmlns="http://www.w3.org/2000/svg" xml:space="preserve" width="8.26772in" height="11.6929in" version="1.1" style="shape-rendering:geometricPrecision; text-rendering:geometricPrecision; image-rendering:optimizeQuality; fill-rule:evenodd; clip-rule:evenodd"
viewBox="0 0 8267.72 11692.91"
 xmlns:xlink="http://www.w3.org/1999/xlink">
 <defs>
  <style type="text/css">
   <![CDATA[
    .fil0 {fill:#DF711B}
   ]]>
  </style>
 </defs>
 <g id="Layer_x0020_1">
  <metadata id="CorelCorpID_0Corel-Layer"/>
  <path class="fil0" d="M4248.46 4336.81c79.45,-233.07 455.72,-208.52 613.24,-344.22 10.24,-8.83 22.22,-9.43 32.04,-4.49 10.34,3.69 18.18,12.74 18.9,26.26 10.47,201.98 273.72,448.81 183.46,663.24 -22.02,-18.14 -44.6,-35.6 -67.63,-52.5 45.63,-89.83 22.14,-177.79 -39.78,-299.59 -38.87,-76.44 -89.98,-167.48 -109.38,-255.92 -6.92,-31.54 -6.92,-31.52 -34.06,-15 -77.46,47.17 -178.73,73.3 -260.96,98.1 -135.89,40.95 -217.81,87.48 -248.44,193.29 -28.88,-3.86 -58.01,-6.97 -87.38,-9.17zm-114.6 57.3c401.06,0 764.14,162.56 1026.98,425.37 262.8,262.85 425.36,625.92 425.36,1026.98 0,401.06 -162.56,764.13 -425.36,1026.96 -262.85,262.82 -625.93,425.39 -1026.98,425.39 -401.06,0 -764.13,-162.57 -1026.96,-425.39 -262.83,-262.83 -425.39,-625.9 -425.39,-1026.96 0,-401.06 162.57,-764.13 425.39,-1026.98 262.83,-262.81 625.91,-425.37 1026.96,-425.37zm988.83 463.51c-253.06,-253.07 -602.67,-409.58 -988.83,-409.58 -386.16,0 -735.77,156.51 -988.84,409.58 -253.06,253.07 -409.57,602.68 -409.57,988.83 0,386.16 156.51,735.78 409.57,988.83 253.07,253.07 602.69,409.59 988.84,409.59 386.17,0 735.77,-156.52 988.83,-409.59 253.07,-253.06 409.57,-602.67 409.57,-988.83 0,-386.15 -156.51,-735.77 -409.57,-988.83zm-500.59 -658.89c58.4,-20.35 118.06,-36.86 177.1,-55.29 -36.77,83 -73.55,166.02 -110.35,249.01 -30.8,-43.79 -65.07,-81.07 -92.42,-131.39 -10.74,-19.74 -11.35,-49.45 25.67,-62.33zm-114.37 30.31l87.94 175.31c-78.21,-25.03 -159.17,-43.83 -242.31,-55.93l154.37 -119.37zm421.43 100.92c-25.66,-56.28 -54.95,-110.83 -82.44,-166.23 -34.56,83.95 -69.13,167.9 -103.72,251.86 52.95,-8 103.59,-9.01 158.85,-24.01 21.68,-5.88 43.57,-25.98 27.32,-61.62zm57.15 103.58l-181.15 55.68c69.69,34.53 136.38,74.25 199.48,118.7l-18.33 -174.38zm-114.31 -724.89c50.93,21.75 74.06,80.48 52.79,131.62 -34.34,82.69 -177.28,172.55 -290.34,172.63 45.2,-84.29 62.8,-200.85 109.01,-267.72 31.44,-45.58 77.62,-58.28 128.54,-36.52zm238.01 103.66c-50.93,-21.76 -109.34,2.12 -131.59,52.81 -36.03,81.98 -2.17,247.4 75.91,329.16 29.67,-90.94 101.76,-184.22 118.17,-263.82 11.2,-54.22 -11.55,-96.38 -62.48,-118.15zm-102.08 -91.4c-49.93,-21.38 -121.64,-69.84 -105.3,-131.97 23.69,-89.89 257.95,-406.74 323.92,-379.62 65.17,28.93 -1.88,417.22 -50.5,496.48 -33.58,54.75 -118.17,36.4 -168.13,15.11zm152.3 -537.22c-233.34,172.43 -300.61,320.2 -323.81,454.15 -94.33,-1.13 -145.61,65.38 -180.64,157.4 -189.79,-393.94 102.55,-563.84 499.35,-622.47 10.75,-1.59 16.45,2.52 5.09,10.93zm127.72 54.57c36.64,287.81 -23.67,438.57 -104.43,547.91 66.03,67.4 53.38,150.42 11.1,239.33 415.87,-135.1 336.61,-463.8 104.74,-791.1 -6.28,-8.87 -13.19,-10.15 -11.42,3.86zm-183.98 -606.28c65.72,86.74 89.12,217.09 78.64,264.3 -10.49,47.19 -37.5,124.41 -137.05,135.39 -82.73,9.15 -112.76,9.6 -164.23,8.38 -36.87,-0.86 -85.98,12.94 -83.38,-44.24 4.98,-109.44 24.44,-192.17 72.87,-303.17 48.41,-111 167.43,-147.41 233.16,-60.67zm-108 151.66c24,-3.93 47.37,16.72 52.18,46.11 4.79,29.4 -10.77,56.4 -34.79,60.35 -24,3.91 -47.36,-16.73 -52.16,-46.14 -4.81,-29.4 10.76,-56.4 34.77,-60.31zm729.59 113.98c-108.1,12.45 -218.5,85.63 -245.36,125.83 -26.85,40.18 -63.99,113.05 -3.13,192.61 50.58,66.12 70.98,88.12 107.44,124.5 26.11,26.05 50.1,71.07 89.6,29.66 75.68,-79.23 121.98,-150.48 168.75,-262.19 46.75,-111.69 -9.18,-222.88 -117.3,-210.43zm-34.96 182.85c-13.76,-20.06 -44.83,-22.66 -69.39,-5.82 -24.57,16.86 -33.33,46.76 -19.58,66.82 13.76,20.06 44.82,22.68 69.4,5.84 24.56,-16.83 33.31,-46.78 19.57,-66.83zm-1671.33 1256.31c-79.45,-233.07 -455.74,-208.52 -613.26,-344.22 -10.24,-8.83 -22.21,-9.43 -32.03,-4.49 -10.34,3.69 -18.19,12.74 -18.9,26.26 -10.48,201.98 -273.74,448.81 -183.46,663.24 22.02,-18.14 44.6,-35.6 67.63,-52.5 -45.63,-89.83 -22.14,-177.79 39.8,-299.59 38.86,-76.44 89.98,-167.48 109.39,-255.92 6.9,-31.54 6.9,-31.52 34.05,-15 77.44,47.17 178.72,73.3 260.96,98.1 135.9,40.95 217.82,87.48 248.43,193.29 28.89,-3.86 58.01,-6.97 87.39,-9.17zm-373.65 -138.07c-58.4,-20.35 -118.06,-36.86 -177.09,-55.31 36.78,83.02 73.56,166.04 110.33,249.03 30.8,-43.79 65.06,-81.07 92.42,-131.39 10.75,-19.72 11.35,-49.43 -25.67,-62.33zm114.37 30.31l-87.9 175.31c78.19,-25.03 159.15,-43.83 242.28,-55.93l-154.38 -119.37zm-421.4 100.92c25.64,-56.28 54.93,-110.83 82.43,-166.23 34.58,83.97 69.15,167.92 103.71,251.86 -52.94,-8 -103.57,-9.01 -158.83,-24.01 -21.69,-5.88 -43.57,-25.98 -27.31,-61.62zm-57.17 103.58l181.15 55.68c-69.69,34.53 -136.36,74.25 -199.48,118.7l18.33 -174.38zm114.31 -724.89c-50.93,21.75 -74.05,80.48 -52.8,131.62 34.36,82.69 177.29,172.55 290.34,172.63 -45.19,-84.29 -62.8,-200.85 -108.99,-267.72 -31.46,-45.58 -77.62,-58.28 -128.56,-36.52zm-238.02 103.66c50.93,-21.76 109.35,2.12 131.63,52.81 36,81.98 2.15,247.4 -75.92,329.16 -29.69,-90.94 -101.76,-184.22 -118.17,-263.82 -11.19,-54.22 11.54,-96.38 62.46,-118.15zm102.1 -91.4c49.91,-21.38 121.64,-69.84 105.29,-131.97 -23.69,-89.89 -257.96,-406.74 -323.92,-379.62 -65.17,28.93 1.89,417.22 50.5,496.48 33.59,54.75 118.18,36.42 168.13,15.11zm-152.3 -537.22c233.33,172.43 300.59,320.22 323.8,454.17 94.33,-1.15 145.61,65.36 180.65,157.38 189.78,-393.94 -102.56,-563.84 -499.37,-622.47 -10.75,-1.59 -16.45,2.52 -5.07,10.93zm-127.72 54.6c-36.66,287.79 23.67,438.54 104.41,547.89 -66.01,67.4 -53.36,150.42 -11.09,239.35 -415.86,-135.13 -336.61,-463.83 -104.75,-791.12 6.29,-8.87 13.21,-10.15 11.43,3.88zm183.97 -606.31c-65.73,86.74 -89.12,217.09 -78.65,264.3 10.5,47.19 37.51,124.41 137.07,135.39 82.7,9.15 112.74,9.6 164.23,8.4 36.87,-0.88 85.96,12.92 83.37,-44.26 -4.99,-109.44 -24.45,-192.17 -72.87,-303.17 -48.4,-111 -167.44,-147.41 -233.15,-60.67zm107.98 151.66c-24,-3.93 -47.35,16.72 -52.15,46.11 -4.81,29.4 10.75,56.4 34.77,60.35 23.99,3.91 47.35,-16.73 52.14,-46.14 4.82,-29.4 -10.74,-56.4 -34.77,-60.31zm-729.57 113.98c108.09,12.45 218.49,85.63 245.37,125.83 26.84,40.18 63.98,113.07 3.13,192.61 -50.56,66.12 -71,88.12 -107.45,124.5 -26.11,26.05 -50.08,71.07 -89.58,29.66 -75.69,-79.23 -122,-150.48 -168.75,-262.17 -46.77,-111.71 9.17,-222.9 117.3,-210.44zm34.96 182.87c13.75,-20.06 44.81,-22.68 69.4,-5.84 24.56,16.86 33.3,46.78 19.54,66.83 -13.74,20.06 -44.81,22.67 -69.37,5.82 -24.59,-16.83 -33.33,-46.78 -19.57,-66.81zm1773.17 731.98c37.45,45.12 59.84,102.22 59.84,164.35 0,72.83 -30.76,138.8 -80.55,186.62l0 0.27 -148.51 142.13c-25.98,24.87 -68.48,24.87 -94.44,0l-148.27 -141.9 0.02 -0.23c-49.94,-47.86 -80.83,-113.93 -80.83,-186.89 0,-62.13 22.38,-119.23 59.85,-164.35 19.81,105.85 109.17,185.74 216.44,185.74 107.26,0 196.63,-79.89 216.44,-185.74zm-216.44 -94.98c80.92,0 146.52,46.95 146.52,104.86 0,57.91 -65.6,104.86 -146.52,104.86 -80.93,0 -146.52,-46.95 -146.52,-104.86 0,-57.91 65.59,-104.86 146.52,-104.86zm0 -202.86c251.16,0 454.78,194.9 454.78,435.3 0,33.94 -4.05,66.93 -11.71,98.62 -7.66,2.23 -15.05,4.4 -22.06,6.52 -35.04,10.56 -71.38,21.91 -107.12,35.41 16.26,-37.97 25.26,-79.54 25.26,-123.12 0,-179.26 -151.84,-324.59 -339.14,-324.59 -187.3,0 -339.13,145.33 -339.13,324.59 0,43.58 8.98,85.15 25.23,123.12 -35.73,-13.5 -72.06,-24.85 -107.11,-35.41 -7.02,-2.11 -14.39,-4.28 -22.06,-6.52 -7.67,-31.69 -11.72,-64.7 -11.72,-98.62 0,-240.4 203.61,-435.3 454.78,-435.3zm0 -280.6c91.68,0 166.03,74.32 166.03,166.02 0,21 -3.89,41.05 -11.01,59.54 -48.63,-15.85 -100.78,-24.47 -155.02,-24.47 -54.25,0 -106.37,8.61 -155.01,24.47 -7.12,-18.49 -11.03,-38.55 -11.03,-59.54 0,-91.69 74.34,-166.02 166.04,-166.02zm-355.78 351.84c-88.49,-316.12 18.91,-515.76 208.83,-679.49 118.47,-102.15 124.93,-199.61 146.94,-200.24 22.02,0.62 28.48,98.09 146.94,200.24 189.91,163.73 297.32,363.37 208.83,679.49 -43.67,-46 -96.96,-83.51 -156.81,-109.59 9.07,-23.67 14.07,-49.35 14.07,-76.23 0,-52.25 -18.85,-100.11 -50.08,-137.17 3.24,-45.3 5.4,-78.52 3.96,-120.91 -3.45,-103.04 -132.29,-314.45 -166.9,-313.95 -34.59,-0.5 -163.46,210.91 -166.91,313.95 -1.43,42.39 0.72,75.61 3.96,120.91 -31.23,37.06 -50.06,84.92 -50.06,137.17 0,26.87 4.98,52.56 14.07,76.23 -59.86,26.09 -113.16,63.6 -156.83,109.59zm237.22 -362.82c-3.05,-43.38 -5.45,-70.69 -4.22,-107.33 2.54,-75.8 97.32,-231.3 122.78,-230.93 25.45,-0.37 120.22,155.13 122.76,230.93 1.25,36.63 -1.16,63.94 -4.2,107.33 -33.9,-22.74 -74.67,-36.02 -118.56,-36.02 -43.88,0 -84.67,13.29 -118.56,36.02zm-323.82 -565.43c46.67,0 99.77,12.66 99.77,58.42 0,45.76 -109.73,264.26 -166.28,353.24 -13.41,-155.5 -17.99,-280.5 -17.99,-327.17 0,-46.68 37.84,-84.49 84.5,-84.49zm-142.02 -163.48c-2.24,-125.03 122.05,-198.48 229.93,-193.25 72.65,3.51 160.83,18.96 169.17,111.34 8.59,95.15 -55.29,206.59 -93.02,275.5 18,-63.86 73.81,-291.43 -99.65,-287.8 -144.13,3.01 -121.31,179.25 -114.67,193.88 0,0 -79.18,61.11 -79.18,61.11 0,0 -11.51,-99.53 -12.59,-160.78zm210.54 -24.83c37.97,0 68.75,35.41 68.75,79.1 0,21.42 -7.39,40.84 -19.42,55.1 -16.23,-9.94 -37.15,-15.91 -59.96,-15.91 -16.07,0 -31.2,2.97 -44.43,8.2 -8.59,-13.21 -13.7,-29.6 -13.7,-47.39 0,-43.69 30.8,-79.1 68.76,-79.1zm816.24 188.31c-46.69,0 -99.78,12.66 -99.78,58.42 0,45.76 109.73,264.26 166.29,353.24 13.41,-155.5 17.98,-280.5 17.98,-327.17 0,-46.68 -37.82,-84.49 -84.48,-84.49zm142.02 -163.48c2.23,-125.03 -122.06,-198.48 -229.93,-193.25 -72.66,3.51 -160.84,18.96 -169.18,111.34 -8.59,95.15 55.3,206.59 93.04,275.5 -18,-63.86 -73.83,-291.43 99.64,-287.8 144.13,3.01 121.31,179.25 114.65,193.88 0,0 79.18,61.11 79.18,61.11 0,0 11.5,-99.53 12.59,-160.78zm-210.54 -24.83c-37.96,0 -68.76,35.41 -68.76,79.1 0,21.42 7.39,40.84 19.41,55.1 16.26,-9.94 37.16,-15.91 59.98,-15.91 16.07,0 31.19,2.97 44.43,8.2 8.59,-13.21 13.7,-29.6 13.7,-47.39 0,-43.69 -30.79,-79.1 -68.76,-79.1zm-259.26 4886.77c79.45,233.08 455.72,208.52 613.24,344.23 10.24,8.83 22.22,9.43 32.04,4.49 10.34,-3.69 18.18,-12.73 18.9,-26.26 10.47,-201.98 273.72,-448.81 183.46,-663.25 -22.02,18.14 -44.6,35.61 -67.63,52.51 45.63,89.82 22.14,177.79 -39.78,299.58 -38.87,76.44 -89.98,167.48 -109.38,255.93 -6.92,31.52 -6.92,31.52 -34.06,15 -77.46,-47.17 -178.73,-73.3 -260.96,-98.09 -135.89,-40.95 -217.81,-87.48 -248.44,-193.29 -28.88,3.86 -58.01,6.96 -87.38,9.16zm373.64 138.08c58.4,20.35 118.06,36.86 177.1,55.3 -36.77,-83 -73.55,-166.02 -110.35,-249.02 -30.8,43.8 -65.07,81.07 -92.42,131.39 -10.74,19.75 -11.35,49.45 25.67,62.33zm-114.37 -30.31l87.94 -175.31c-78.21,25.03 -159.17,43.83 -242.31,55.94l154.37 119.37zm421.43 -100.92c-25.66,56.28 -54.95,110.81 -82.44,166.22 -34.56,-83.94 -69.13,-167.89 -103.72,-251.86 52.95,8.01 103.59,9.02 158.85,24.02 21.68,5.88 43.57,25.98 27.32,61.62zm57.15 -103.61l-181.15 -55.66c69.69,-34.53 136.38,-74.27 199.48,-118.7l-18.33 174.35zm-114.31 724.91c50.93,-21.75 74.06,-80.48 52.79,-131.62 -34.34,-82.69 -177.28,-172.55 -290.34,-172.63 45.2,84.3 62.8,200.85 109.01,267.73 31.44,45.57 77.62,58.28 128.54,36.52zm238.01 -103.66c-50.93,21.75 -109.34,-2.12 -131.59,-52.81 -36.03,-81.99 -2.17,-247.4 75.91,-329.16 29.67,90.94 101.76,184.22 118.17,263.83 11.2,54.22 -11.55,96.38 -62.48,118.15zm-102.08 91.4c-49.93,21.38 -121.64,69.84 -105.3,131.96 23.69,89.89 257.95,406.75 323.92,379.62 65.17,-28.93 -1.88,-417.22 -50.5,-496.48 -33.58,-54.74 -118.17,-36.39 -168.13,-15.11zm152.3 537.22c-233.34,-172.44 -300.61,-320.2 -323.81,-454.17 -94.33,1.14 -145.61,-65.36 -180.64,-157.38 -189.79,393.94 102.55,563.83 499.35,622.47 10.75,1.58 16.45,-2.52 5.09,-10.92zm127.72 -54.58c36.64,-287.82 -23.67,-438.56 -104.43,-547.91 66.03,-67.39 53.38,-150.41 11.1,-239.33 415.87,135.11 336.61,463.8 104.74,791.1 -6.28,8.86 -13.19,10.14 -11.42,-3.86zm-183.98 606.28c65.72,-86.74 89.12,-217.1 78.64,-264.3 -10.49,-47.19 -37.5,-124.41 -137.05,-135.38 -82.73,-9.16 -112.76,-9.61 -164.23,-8.38 -36.87,0.86 -85.98,-12.94 -83.38,44.24 4.98,109.44 24.44,192.17 72.87,303.16 48.41,110.99 167.43,147.41 233.16,60.67zm-108 -151.66c24,3.91 47.37,-16.72 52.18,-46.11 4.79,-29.39 -10.77,-56.41 -34.79,-60.34 -24,-3.92 -47.36,16.72 -52.16,46.14 -4.81,29.39 10.76,56.39 34.77,60.31zm729.59 -113.98c-108.1,-12.46 -218.5,-85.64 -245.36,-125.83 -26.85,-40.19 -63.99,-113.06 -3.13,-192.61 50.58,-66.12 70.98,-88.13 107.44,-124.5 26.11,-26.05 50.1,-71.07 89.6,-29.67 75.68,79.24 121.98,150.48 168.75,262.19 46.75,111.69 -9.18,222.88 -117.3,210.43zm-34.96 -182.85c-13.76,20.06 -44.83,22.65 -69.39,5.81 -24.57,-16.86 -33.33,-46.76 -19.58,-66.81 13.76,-20.07 44.82,-22.69 69.4,-5.84 24.56,16.83 33.31,46.77 19.57,66.83zm-1671.33 -1256.32c-79.45,233.08 -455.74,208.52 -613.26,344.23 -10.24,8.83 -22.21,9.43 -32.03,4.49 -10.34,-3.69 -18.19,-12.73 -18.9,-26.26 -10.48,-201.98 -273.74,-448.81 -183.46,-663.25 22.02,18.14 44.6,35.61 67.63,52.51 -45.63,89.82 -22.14,177.79 39.8,299.58 38.86,76.44 89.98,167.48 109.39,255.93 6.9,31.52 6.9,31.52 34.05,15 77.44,-47.17 178.72,-73.3 260.96,-98.09 135.9,-40.95 217.82,-87.48 248.43,-193.29 28.89,3.86 58.01,6.96 87.39,9.16zm-373.65 138.08c-58.4,20.35 -118.06,36.86 -177.09,55.3 36.78,-83 73.56,-166.02 110.33,-249.02 30.8,43.8 65.06,81.07 92.42,131.39 10.75,19.72 11.35,49.43 -25.67,62.33zm114.37 -30.31l-87.9 -175.31c78.19,25.03 159.15,43.83 242.28,55.94l-154.38 119.37zm-421.4 -100.92c25.64,56.28 54.93,110.81 82.43,166.2 34.58,-83.94 69.15,-167.9 103.71,-251.84 -52.94,8.01 -103.57,9.02 -158.83,24.02 -21.69,5.88 -43.57,25.98 -27.31,61.62zm-57.17 -103.61l181.15 -55.66c-69.69,-34.53 -136.36,-74.26 -199.48,-118.7l18.33 174.35zm114.31 724.91c-50.93,-21.75 -74.05,-80.48 -52.8,-131.62 34.36,-82.69 177.29,-172.55 290.34,-172.63 -45.19,84.3 -62.8,200.85 -108.99,267.73 -31.46,45.57 -77.62,58.28 -128.56,36.52zm-238.02 -103.66c50.93,21.75 109.35,-2.12 131.63,-52.81 36,-81.99 2.15,-247.43 -75.92,-329.16 -29.69,90.94 -101.76,184.22 -118.17,263.83 -11.19,54.22 11.54,96.38 62.46,118.15zm102.1 91.4c49.91,21.38 121.64,69.84 105.29,131.96 -23.69,89.89 -257.96,406.75 -323.92,379.62 -65.17,-28.93 1.89,-417.22 50.5,-496.48 33.59,-54.74 118.18,-36.41 168.13,-15.11zm-152.3 537.22c233.33,-172.44 300.59,-320.22 323.8,-454.17 94.33,1.14 145.61,-65.36 180.65,-157.38 189.78,393.94 -102.56,563.83 -499.37,622.47 -10.75,1.58 -16.45,-2.52 -5.07,-10.92zm-127.72 -54.6c-36.66,-287.8 23.67,-438.54 104.41,-547.89 -66.01,-67.39 -53.36,-150.41 -11.09,-239.35 -415.86,135.13 -336.61,463.82 -104.75,791.12 6.29,8.86 13.21,10.14 11.43,-3.88zm183.97 606.3c-65.73,-86.74 -89.12,-217.1 -78.65,-264.3 10.5,-47.19 37.51,-124.41 137.07,-135.38 82.7,-9.16 112.74,-9.61 164.23,-8.41 36.87,0.88 85.96,-12.92 83.37,44.26 -4.99,109.44 -24.45,192.17 -72.87,303.16 -48.4,110.99 -167.44,147.41 -233.15,60.67zm107.98 -151.66c-24,3.91 -47.35,-16.72 -52.15,-46.11 -4.81,-29.39 10.75,-56.41 34.77,-60.34 23.99,-3.92 47.35,16.72 52.14,46.14 4.82,29.39 -10.74,56.39 -34.77,60.31zm-729.57 -113.98c108.09,-12.46 218.49,-85.64 245.37,-125.83 26.84,-40.19 63.98,-113.07 3.13,-192.61 -50.56,-66.12 -71,-88.13 -107.45,-124.5 -26.11,-26.05 -50.08,-71.07 -89.58,-29.67 -75.69,79.24 -122,150.48 -168.75,262.17 -46.77,111.72 9.17,222.91 117.3,210.45zm34.96 -182.88c13.75,20.06 44.81,22.68 69.4,5.82 24.56,-16.84 33.3,-46.75 19.54,-66.81 -13.74,-20.06 -44.81,-22.67 -69.37,-5.81 -24.59,16.83 -33.33,46.77 -19.57,66.81zm1773.17 -731.98c37.45,-45.13 59.84,-102.23 59.84,-164.35 0,-72.83 -30.76,-138.8 -80.55,-186.62l0 -0.28 -148.51 -142.13c-25.98,-24.88 -68.48,-24.88 -94.44,0l-148.27 141.9 0.02 0.22c-49.94,47.87 -80.83,113.93 -80.83,186.9 0,62.12 22.38,119.22 59.85,164.35 19.81,-105.85 109.17,-185.75 216.44,-185.75 107.26,0 196.63,79.9 216.44,185.75zm-216.44 94.98c80.92,0 146.52,-46.95 146.52,-104.85 0,-57.92 -65.6,-104.87 -146.52,-104.87 -80.93,0 -146.52,46.94 -146.52,104.87 0,57.91 65.59,104.85 146.52,104.85zm0 202.86c251.16,0 454.78,-194.9 454.78,-435.3 0,-33.94 -4.05,-66.94 -11.71,-98.62 -7.66,-2.22 -15.05,-4.4 -22.06,-6.52 -35.04,-10.56 -71.38,-21.9 -107.12,-35.4 16.26,37.96 25.26,79.54 25.26,123.12 0,179.26 -151.84,324.6 -339.14,324.6 -187.3,0 -339.13,-145.33 -339.13,-324.6 0,-43.58 8.98,-85.16 25.23,-123.12 -35.73,13.5 -72.06,24.85 -107.11,35.4 -7.02,2.11 -14.39,4.29 -22.06,6.52 -7.67,31.69 -11.72,64.71 -11.72,98.62 0,240.4 203.61,435.3 454.78,435.3zm0 280.6c91.68,0 166.03,-74.32 166.03,-166.01 0,-20.99 -3.89,-41.06 -11.01,-59.54 -48.63,15.85 -100.78,24.46 -155.02,24.46 -54.25,0 -106.37,-8.61 -155.01,-24.46 -7.12,18.48 -11.03,38.55 -11.03,59.54 0,91.69 74.34,166.01 166.04,166.01zm-355.78 -351.84c-88.49,316.12 18.91,515.76 208.83,679.49 118.47,102.15 124.93,199.59 146.94,200.24 22.02,-0.64 28.48,-98.09 146.94,-200.24 189.91,-163.72 297.32,-363.37 208.83,-679.49 -43.67,46 -96.96,83.5 -156.81,109.6 9.07,23.67 14.07,49.36 14.07,76.23 0,52.25 -18.85,100.11 -50.08,137.16 3.24,45.3 5.4,78.52 3.96,120.92 -3.45,103.03 -132.29,314.45 -166.9,313.95 -34.59,0.5 -163.46,-210.92 -166.91,-313.95 -1.43,-42.4 0.72,-75.61 3.96,-120.92 -31.23,-37.06 -50.06,-84.91 -50.06,-137.16 0,-26.87 4.98,-52.56 14.07,-76.23 -59.86,-26.09 -113.16,-63.59 -156.83,-109.6zm237.22 362.82c-3.05,43.39 -5.45,70.7 -4.22,107.33 2.54,75.8 97.32,231.31 122.78,230.93 25.45,0.38 120.22,-155.13 122.76,-230.93 1.25,-36.63 -1.16,-63.94 -4.2,-107.33 -33.9,22.74 -74.67,36.03 -118.56,36.03 -43.88,0 -84.67,-13.29 -118.56,-36.03zm-323.82 565.43c46.67,0 99.77,-12.65 99.77,-58.41 0,-45.77 -109.73,-264.26 -166.28,-353.24 -13.41,155.5 -17.99,280.5 -17.99,327.17 0,46.67 37.84,84.48 84.5,84.48zm-142.02 163.48c-2.24,125.04 122.05,198.49 229.93,193.26 72.65,-3.52 160.83,-18.98 169.17,-111.34 8.59,-95.15 -55.29,-206.59 -93.02,-275.5 18,63.84 73.81,291.42 -99.65,287.8 -144.13,-3 -121.31,-179.25 -114.67,-193.88 0,0 -79.18,-61.11 -79.18,-61.11 0,0 -11.51,99.53 -12.59,160.78zm210.54 24.83c37.97,0 68.75,-35.43 68.75,-79.1 0,-21.41 -7.39,-40.83 -19.42,-55.1 -16.23,9.93 -37.15,15.91 -59.96,15.91 -16.07,0 -31.2,-2.96 -44.43,-8.2 -8.59,13.2 -13.7,29.6 -13.7,47.39 0,43.67 30.8,79.1 68.76,79.1zm816.24 -188.31c-46.69,0 -99.78,-12.65 -99.78,-58.41 0,-45.77 109.73,-264.26 166.29,-353.24 13.41,155.5 17.98,280.5 17.98,327.17 0,46.67 -37.82,84.48 -84.48,84.48zm142.02 163.48c2.23,125.04 -122.06,198.49 -229.93,193.26 -72.66,-3.52 -160.84,-18.98 -169.18,-111.34 -8.59,-95.15 55.3,-206.59 93.04,-275.5 -18,63.84 -73.83,291.42 99.64,287.8 144.13,-3 121.31,-179.25 114.65,-193.88 0,0 79.18,-61.11 79.18,-61.11 0,0 11.5,99.53 12.59,160.78zm-210.54 24.83c-37.96,0 -68.76,-35.43 -68.76,-79.1 0,-21.41 7.39,-40.83 19.41,-55.1 16.26,9.93 37.16,15.91 59.98,15.91 16.07,0 31.19,-2.96 44.43,-8.2 8.59,13.2 13.7,29.6 13.7,47.39 0,43.67 -30.79,79.1 -68.76,79.1zm-1883.5 -3491.68c-233.09,-79.43 -208.53,-455.73 -344.24,-613.26 -8.83,-10.24 -9.44,-22.19 -4.49,-32.01 3.69,-10.36 12.72,-18.2 26.25,-18.9 201.99,-10.5 448.81,-273.75 663.25,-183.48 -18.14,22.02 -35.59,44.6 -52.5,67.63 -89.82,-45.63 -177.78,-22.11 -299.58,39.8 -76.44,38.86 -167.47,90 -255.93,109.39 -31.52,6.91 -31.51,6.93 -14.99,34.05 47.15,77.45 73.29,178.72 98.08,260.96 40.96,135.91 87.48,217.82 193.29,248.45 -3.85,28.87 -6.96,58 -9.15,87.37zm-138.08 -373.63c-20.36,-58.39 -36.86,-118.07 -55.29,-177.11 82.98,36.79 166.01,73.57 249.01,110.34 -43.79,30.8 -81.08,65.07 -131.39,92.43 -19.74,10.74 -49.44,11.34 -62.33,-25.66zm30.3 114.38l175.31 -87.93c-25.03,78.19 -43.83,159.15 -55.93,242.28l-119.38 -154.35zm100.93 -421.44c-56.28,25.65 -110.82,54.96 -166.22,82.44 83.94,34.57 167.89,69.15 251.86,103.72 -8.02,-52.94 -9.02,-103.56 -24.01,-158.83 -5.89,-21.69 -25.98,-43.57 -61.63,-27.32zm103.6 -57.15l55.67 181.17c34.53,-69.71 74.27,-136.39 118.7,-199.5l-174.36 18.33zm-724.91 114.31c21.75,-50.93 80.48,-74.05 131.62,-52.79 82.69,34.36 172.56,177.31 172.64,290.36 -84.31,-45.21 -200.86,-62.82 -267.74,-109 -45.59,-31.47 -58.28,-77.64 -36.52,-128.57zm103.67 -238.01c-21.75,50.93 2.11,109.34 52.81,131.61 81.98,36.02 247.39,2.18 329.16,-75.89 -90.94,-29.68 -184.22,-101.76 -263.82,-118.19 -54.22,-11.18 -96.38,11.55 -118.15,62.47zm-91.41 102.1c-21.38,49.92 -69.84,121.63 -131.96,105.28 -89.89,-23.67 -406.74,-257.96 -379.63,-323.9 28.93,-65.19 417.22,1.88 496.48,50.5 54.76,33.58 36.4,118.17 15.11,168.13zm-537.22 -152.3c172.44,233.32 320.19,300.58 454.17,323.79 -1.15,94.34 65.36,145.6 157.39,180.66 -393.95,189.77 -563.84,-102.57 -622.48,-499.38 -1.58,-10.73 2.53,-16.45 10.93,-5.06zm54.57 -127.73c287.82,-36.66 438.57,23.67 547.91,104.43 67.4,-66.04 150.41,-53.39 239.33,-11.12 -135.11,-415.86 -463.81,-336.61 -791.1,-104.72 -8.86,6.26 -10.15,13.19 3.86,11.41zm-606.28 183.98c86.73,-65.73 217.1,-89.13 264.3,-78.64 47.18,10.48 124.39,37.49 135.38,137.05 9.16,82.73 9.61,112.75 8.38,164.23 -0.86,36.88 12.93,85.97 -44.24,83.37 -109.43,-4.96 -192.16,-24.44 -303.16,-72.85 -110.99,-48.42 -147.4,-167.43 -60.66,-233.16zm151.65 108c-3.91,-24.02 16.73,-47.37 46.12,-52.17 29.4,-4.81 56.4,10.76 60.34,34.77 3.91,24 -16.73,47.35 -46.14,52.17 -29.39,4.8 -56.4,-10.77 -60.31,-34.77zm113.98 -729.6c12.46,108.1 85.65,218.5 125.84,245.37 40.19,26.87 113.05,64.01 192.62,3.13 66.11,-50.56 88.13,-70.99 124.49,-107.44 26.06,-26.12 71.07,-50.07 29.66,-89.59 -79.22,-75.67 -150.47,-122 -262.19,-168.76 -111.69,-46.73 -222.88,9.2 -210.43,117.3zm182.86 34.96c-20.06,13.76 -22.66,44.82 -5.82,69.4 16.86,24.57 46.77,33.33 66.83,19.57 20.05,-13.76 22.67,-44.84 5.84,-69.39 -16.84,-24.56 -46.78,-33.33 -66.85,-19.58zm1256.33 1671.35c-233.09,79.43 -208.53,455.74 -344.24,613.23 -8.83,10.27 -9.44,22.22 -4.49,32.03 3.69,10.36 12.72,18.2 26.25,18.9 201.99,10.5 448.81,273.73 663.25,183.46 -18.14,-22 -35.59,-44.6 -52.5,-67.62 -89.82,45.64 -177.78,22.12 -299.58,-39.79 -76.44,-38.86 -167.47,-90 -255.93,-109.38 -31.52,-6.93 -31.51,-6.93 -14.99,-34.07 47.15,-77.45 73.29,-178.72 98.08,-260.96 40.96,-135.89 87.48,-217.8 193.29,-248.44 -3.85,-28.88 -6.96,-57.98 -9.15,-87.36zm-138.08 373.63c-20.36,58.39 -36.86,118.06 -55.29,177.08 82.98,-36.76 166.01,-73.55 249.01,-110.33 -43.79,-30.81 -81.08,-65.07 -131.39,-92.43 -19.73,-10.72 -49.43,-11.33 -62.33,25.68zm30.3 -114.37l175.31 87.93c-25.03,-78.21 -43.83,-159.15 -55.93,-242.3l-119.38 154.37zm100.93 421.43c-56.28,-25.65 -110.82,-54.96 -166.21,-82.43 83.95,-34.58 167.89,-69.15 251.85,-103.74 -8.02,52.96 -9.02,103.58 -24.01,158.84 -5.89,21.69 -25.98,43.57 -61.63,27.33zm103.6 57.14l55.67 -181.15c34.53,69.71 74.24,136.39 118.7,199.51l-174.36 -18.35zm-724.91 -114.31c21.75,50.93 80.48,74.05 131.62,52.81 82.69,-34.37 172.56,-177.31 172.64,-290.35 -84.31,45.2 -200.86,62.81 -267.74,108.99 -45.59,31.47 -58.28,77.63 -36.52,128.56zm103.67 238.03c-21.75,-50.93 2.11,-109.34 52.81,-131.61 81.98,-36.03 247.42,-2.18 329.16,75.9 -90.94,29.67 -184.22,101.75 -263.82,118.17 -54.22,11.2 -96.38,-11.55 -118.15,-62.45zm-91.41 -102.11c-21.38,-49.91 -69.84,-121.62 -131.96,-105.27 -89.89,23.67 -406.74,257.96 -379.63,323.91 28.93,65.19 417.22,-1.88 496.48,-50.5 54.76,-33.57 36.42,-118.17 15.11,-168.13zm-537.22 152.3c172.44,-233.33 320.22,-300.59 454.17,-323.78 -1.15,-94.34 65.36,-145.62 157.39,-180.67 -393.95,-189.76 -563.84,102.56 -622.48,499.37 -1.58,10.75 2.53,16.45 10.93,5.08zm54.6 127.74c287.8,36.65 438.54,-23.67 547.89,-104.43 67.4,66.01 150.41,53.39 239.35,11.11 -135.13,415.87 -463.82,336.6 -791.12,104.72 -8.86,-6.29 -10.15,-13.19 3.88,-11.41zm-606.3 -183.98c86.73,65.71 217.1,89.11 264.3,78.63 47.18,-10.47 124.39,-37.48 135.38,-137.05 9.16,-82.72 9.61,-112.74 8.39,-164.22 -0.87,-36.89 12.92,-85.99 -44.26,-83.39 -109.43,4.99 -192.16,24.47 -303.16,72.87 -110.99,48.4 -147.4,167.43 -60.66,233.16zm151.65 -108c-3.91,24 16.73,47.35 46.12,52.17 29.4,4.79 56.4,-10.78 60.34,-34.77 3.91,-24 -16.73,-47.36 -46.14,-52.17 -29.39,-4.81 -56.4,10.78 -60.31,34.77zm113.98 729.58c12.46,-108.1 85.65,-218.5 125.84,-245.35 40.19,-26.86 113.08,-64 192.62,-3.14 66.11,50.58 88.13,71.01 124.49,107.46 26.06,26.09 71.07,50.07 29.66,89.59 -79.22,75.67 -150.47,121.98 -262.16,168.73 -111.72,46.76 -222.91,-9.17 -210.45,-117.29zm182.88 -34.97c-20.07,-13.75 -22.68,-44.81 -5.82,-69.37 16.83,-24.56 46.75,-33.33 66.81,-19.57 20.07,13.75 22.67,44.81 5.83,69.39 -16.84,24.56 -46.78,33.31 -66.82,19.55zm4275.59 -1671.32c233.08,-79.43 208.52,-455.73 344.23,-613.26 8.83,-10.24 9.43,-22.19 4.48,-32.01 -3.68,-10.36 -12.73,-18.2 -26.25,-18.9 -201.98,-10.5 -448.8,-273.75 -663.25,-183.48 18.15,22.02 35.61,44.6 52.51,67.63 89.82,-45.63 177.8,-22.11 299.59,39.8 76.44,38.86 167.47,90 255.91,109.39 31.54,6.91 31.51,6.93 15.01,34.05 -47.17,77.45 -73.3,178.72 -98.1,260.96 -40.96,135.91 -87.48,217.82 -193.3,248.45 3.87,28.87 6.97,58 9.17,87.37zm138.07 -373.63c20.35,-58.39 36.87,-118.07 55.3,-177.11 -83,36.79 -166.02,73.57 -249.02,110.34 43.78,30.8 81.07,65.07 131.38,92.43 19.76,10.74 49.46,11.34 62.34,-25.66zm-30.3 114.38l-175.31 -87.93c25.03,78.19 43.83,159.15 55.94,242.28l119.37 -154.35zm-100.92 -421.44c56.27,25.65 110.81,54.96 166.23,82.44 -83.95,34.57 -167.9,69.15 -251.87,103.72 8,-52.94 9.02,-103.56 24.02,-158.83 5.88,-21.69 25.98,-43.57 61.62,-27.32zm-103.59 -57.15l-55.68 181.17c-34.54,-69.71 -74.26,-136.39 -118.7,-199.5l174.38 18.33zm724.89 114.31c-21.75,-50.93 -80.48,-74.05 -131.62,-52.79 -82.69,34.36 -172.55,177.31 -172.63,290.36 84.29,-45.21 200.85,-62.82 267.74,-109 45.56,-31.47 58.28,-77.64 36.51,-128.57zm-103.66 -238.01c21.75,50.93 -2.12,109.34 -52.81,131.61 -82,36.02 -247.41,2.18 -329.17,-75.89 90.93,-29.68 184.21,-101.76 263.81,-118.19 54.23,-11.18 96.39,11.55 118.16,62.47zm91.39 102.1c21.39,49.92 69.85,121.63 131.97,105.28 89.89,-23.67 406.75,-257.96 379.63,-323.9 -28.92,-65.19 -417.22,1.88 -496.48,50.5 -54.74,33.58 -36.39,118.17 -15.12,168.13zm537.22 -152.3c-172.43,233.32 -320.2,300.58 -454.14,323.79 1.12,94.34 -65.38,145.6 -157.4,180.66 393.93,189.77 563.83,-102.57 622.46,-499.38 1.6,-10.73 -2.51,-16.45 -10.92,-5.06zm-54.57 -127.73c-287.81,-36.66 -438.56,23.67 -547.91,104.43 -67.4,-66.04 -150.42,-53.39 -239.33,-11.12 135.11,-415.86 463.8,-336.61 791.1,-104.72 8.87,6.26 10.14,13.19 -3.86,11.41zm606.29 183.98c-86.74,-65.73 -217.1,-89.13 -264.3,-78.64 -47.19,10.48 -124.41,37.49 -135.39,137.05 -9.15,82.73 -9.59,112.75 -8.37,164.23 0.84,36.88 -12.95,85.97 44.22,83.37 109.45,-4.96 192.17,-24.44 303.17,-72.85 110.99,-48.42 147.41,-167.43 60.67,-233.16zm-151.67 108c3.93,-24.02 -16.71,-47.37 -46.11,-52.17 -29.39,-4.81 -56.4,10.76 -60.34,34.77 -3.92,24 16.73,47.35 46.14,52.17 29.39,4.8 56.4,-10.77 60.31,-34.77zm-113.98 -729.6c-12.46,108.1 -85.63,218.5 -125.83,245.37 -40.18,26.87 -113.06,64.01 -192.62,3.13 -66.12,-50.56 -88.11,-70.99 -124.5,-107.44 -26.06,-26.12 -71.07,-50.07 -29.66,-89.59 79.22,-75.67 150.47,-122 262.19,-168.76 111.69,-46.73 222.87,9.2 210.42,117.3zm-182.85 34.96c20.06,13.76 22.67,44.82 5.82,69.4 -16.85,24.57 -46.75,33.33 -66.81,19.57 -20.07,-13.76 -22.69,-44.84 -5.84,-69.39 16.83,-24.56 46.77,-33.33 66.83,-19.58zm-1256.31 1671.35c233.08,79.43 208.52,455.74 344.23,613.23 8.83,10.27 9.43,22.22 4.48,32.03 -3.68,10.36 -12.73,18.2 -26.25,18.9 -201.98,10.5 -448.8,273.73 -663.25,183.46 18.15,-22 35.61,-44.6 52.51,-67.62 89.82,45.64 177.8,22.12 299.59,-39.79 76.44,-38.86 167.47,-90 255.91,-109.38 31.54,-6.93 31.51,-6.93 15.01,-34.07 -47.17,-77.45 -73.3,-178.72 -98.1,-260.96 -40.96,-135.89 -87.48,-217.8 -193.3,-248.44 3.87,-28.88 6.97,-57.98 9.17,-87.36zm138.07 373.63c20.35,58.39 36.87,118.06 55.31,177.08 -83.01,-36.76 -166.03,-73.55 -249.03,-110.33 43.78,-30.81 81.07,-65.07 131.38,-92.43 19.73,-10.72 49.44,-11.33 62.34,25.68zm-30.3 -114.37l-175.31 87.93c25.03,-78.21 43.83,-159.15 55.94,-242.3l119.37 154.37zm-100.92 421.43c56.27,-25.65 110.81,-54.96 166.23,-82.43 -83.98,-34.58 -167.93,-69.15 -251.87,-103.74 8,52.96 9.02,103.58 24.02,158.84 5.88,21.69 25.98,43.57 61.62,27.33zm-103.59 57.14l-55.68 -181.15c-34.54,69.71 -74.26,136.39 -118.7,199.51l174.38 -18.35zm724.89 -114.31c-21.75,50.93 -80.48,74.05 -131.62,52.81 -82.69,-34.37 -172.55,-177.31 -172.63,-290.35 84.29,45.2 200.85,62.81 267.74,108.99 45.56,31.47 58.28,77.63 36.51,128.56zm-103.66 238.03c21.75,-50.93 -2.12,-109.34 -52.81,-131.61 -82,-36.03 -247.41,-2.18 -329.17,75.9 90.93,29.67 184.21,101.75 263.81,118.17 54.23,11.2 96.39,-11.55 118.16,-62.45zm91.39 -102.11c21.39,-49.91 69.85,-121.62 131.97,-105.27 89.89,23.67 406.75,257.96 379.63,323.91 -28.92,65.19 -417.22,-1.88 -496.48,-50.5 -54.74,-33.57 -36.41,-118.17 -15.12,-168.13zm537.22 152.3c-172.43,-233.33 -320.21,-300.59 -454.16,-323.78 1.14,-94.34 -65.36,-145.62 -157.37,-180.67 393.93,-189.76 563.83,102.56 622.46,499.37 1.6,10.75 -2.51,16.45 -10.92,5.08zm-54.59 127.74c-287.8,36.65 -438.55,-23.67 -547.89,-104.43 -67.4,66.01 -150.42,53.39 -239.36,11.11 135.13,415.87 463.83,336.6 791.13,104.72 8.87,-6.29 10.14,-13.19 -3.88,-11.41zm606.31 -183.98c-86.74,65.71 -217.1,89.11 -264.3,78.63 -47.19,-10.47 -124.41,-37.48 -135.39,-137.05 -9.15,-82.72 -9.59,-112.74 -8.4,-164.22 0.87,-36.89 -12.92,-85.99 44.25,-83.39 109.45,4.99 192.17,24.47 303.17,72.87 110.99,48.4 147.41,167.43 60.67,233.16zm-151.67 -108c3.93,24 -16.71,47.35 -46.11,52.17 -29.39,4.79 -56.4,-10.78 -60.34,-34.77 -3.92,-24 16.73,-47.36 46.14,-52.17 29.39,-4.81 56.4,10.78 60.31,34.77zm-113.98 729.58c-12.46,-108.1 -85.63,-218.5 -125.83,-245.35 -40.18,-26.86 -113.07,-64 -192.62,-3.14 -66.12,50.58 -88.11,71.01 -124.5,107.46 -26.06,26.09 -71.07,50.07 -29.66,89.59 79.22,75.67 150.47,121.98 262.16,168.73 111.71,46.76 222.9,-9.17 210.44,-117.29zm-182.87 -34.97c20.06,-13.75 22.68,-44.81 5.83,-69.37 -16.85,-24.56 -46.77,-33.33 -66.83,-19.57 -20.06,13.75 -22.66,44.81 -5.81,69.39 16.83,24.56 46.77,33.31 66.81,19.55zm-4799.91 -1773.17c45.13,-37.44 102.22,-59.83 164.35,-59.83 72.83,0 138.8,30.77 186.62,80.53l0.28 0 142.12 148.52c24.87,25.98 24.87,68.46 0,94.44l-141.89 148.26 -0.23 0c-47.87,49.93 -113.93,80.81 -186.89,80.81 -62.13,0 -119.22,-22.39 -164.35,-59.85 105.85,-19.81 185.75,-109.18 185.75,-216.44 0,-107.26 -79.89,-196.62 -185.75,-216.44zm-94.98 216.44c0,-80.91 46.94,-146.52 104.87,-146.52 57.9,0 104.85,65.62 104.85,146.52 0,80.92 -46.95,146.52 -104.85,146.52 -57.92,0 -104.87,-65.6 -104.87,-146.52zm-202.86 0c0,-251.17 194.91,-454.79 435.31,-454.79 33.93,0 66.93,4.05 98.61,11.74 2.22,7.64 4.4,15.04 6.52,22.04 10.55,35.03 21.9,71.38 35.41,107.11 -37.97,-16.26 -79.56,-25.24 -123.13,-25.24 -179.27,0 -324.6,151.82 -324.6,339.13 0,187.29 145.33,339.13 324.6,339.13 43.57,0 85.16,-8.96 123.13,-25.24 -13.51,35.74 -24.86,72.07 -35.41,107.11 -2.12,7.02 -4.3,14.4 -6.52,22.06 -31.68,7.67 -64.71,11.72 -98.61,11.72 -240.41,0 -435.31,-203.59 -435.31,-454.78zm-280.6 0c0,-91.69 74.33,-166.04 166.02,-166.04 20.98,0 41.05,3.93 59.54,11.03 -15.86,48.63 -24.46,100.77 -24.46,155.02 0,54.24 8.61,106.39 24.46,155.03 -18.49,7.11 -38.56,11 -59.54,11 -91.69,0 -166.02,-74.32 -166.02,-166.03zm351.85 355.78c-316.13,88.5 -515.77,-18.92 -679.5,-208.82 -102.15,-118.48 -199.59,-124.93 -200.23,-146.96 0.64,-22.02 98.09,-28.47 200.23,-146.95 163.73,-189.89 363.37,-297.32 679.5,-208.83 -46.01,43.68 -83.51,96.97 -109.61,156.82 -23.67,-9.06 -49.36,-14.07 -76.22,-14.07 -52.25,0 -100.12,18.83 -137.17,50.07 -45.3,-3.24 -78.51,-5.4 -120.9,-3.95 -103.04,3.47 -314.46,132.31 -313.95,166.91 -0.51,34.61 210.91,163.45 313.95,166.93 42.39,1.42 75.59,-0.74 120.9,-3.95 37.06,31.24 84.92,50.05 137.17,50.05 26.86,0 52.56,-4.99 76.22,-14.05 26.09,59.85 63.6,113.13 109.61,156.8zm-362.82 -237.22c-43.38,3.05 -70.7,5.45 -107.33,4.23 -75.8,-2.56 -231.3,-97.33 -230.94,-122.78 -0.36,-25.46 155.14,-120.24 230.94,-122.77 36.63,-1.25 63.95,1.16 107.33,4.22 -22.74,33.87 -36.03,74.66 -36.03,118.54 0,43.88 13.29,84.67 36.03,118.56zm-565.44 323.83c0,-46.66 12.65,-99.76 58.43,-99.76 45.76,0 264.26,109.72 353.23,166.27 -155.5,13.41 -280.5,17.99 -327.16,17.99 -46.67,0 -84.5,-37.83 -84.5,-84.5zm-163.47 142.02c-125.04,2.22 -198.5,-122.05 -193.25,-229.93 3.51,-72.65 18.98,-160.81 111.34,-169.16 95.14,-8.6 206.58,55.28 275.5,93.04 -63.85,-18.03 -291.42,-73.85 -287.8,99.64 3.01,144.11 179.25,121.29 193.88,114.66 0,0 61.11,79.18 61.11,79.18 0,0 -99.52,11.48 -160.78,12.57zm-24.83 -210.55c0,-37.96 35.42,-68.76 79.09,-68.76 21.42,0 40.84,7.41 55.09,19.43 -9.93,16.26 -15.9,37.17 -15.9,59.97 0,16.08 2.97,31.2 8.21,44.43 -13.22,8.61 -29.61,13.7 -47.4,13.7 -43.67,0 -79.09,-30.78 -79.09,-68.76zm188.3 -816.22c0,46.66 12.65,99.76 58.43,99.76 45.76,0 264.26,-109.74 353.23,-166.3 -155.5,-13.41 -280.5,-17.96 -327.16,-17.96 -46.67,0 -84.5,37.81 -84.5,84.49zm-163.47 -142.04c-125.04,-2.22 -198.5,122.07 -193.25,229.95 3.51,72.63 18.98,160.81 111.34,169.15 95.14,8.59 206.58,-55.27 275.5,-93.03 -63.85,18.03 -291.42,73.83 -287.8,-99.64 3.01,-144.11 179.25,-121.3 193.88,-114.66 0,0 61.11,-79.18 61.11,-79.18 0,0 -99.52,-11.48 -160.78,-12.59zm-24.83 210.57c0,37.96 35.42,68.75 79.09,68.75 21.42,0 40.84,-7.41 55.09,-19.44 -9.93,-16.24 -15.9,-37.15 -15.9,-59.95 0,-16.09 2.97,-31.22 8.21,-44.45 -13.22,-8.59 -29.61,-13.69 -47.4,-13.69 -43.67,0 -79.09,30.79 -79.09,68.78zm5411.07 157.39c-45.13,-37.44 -102.22,-59.83 -164.34,-59.83 -72.83,0 -138.8,30.77 -186.63,80.53l-0.26 0 -142.15 148.52c-24.87,25.98 -24.87,68.46 0,94.44l141.91 148.26 0.24 0c47.86,49.93 113.92,80.81 186.89,80.81 62.11,0 119.21,-22.39 164.34,-59.85 -105.85,-19.81 -185.75,-109.18 -185.75,-216.44 0,-107.26 79.9,-196.62 185.75,-216.44zm95 216.44c0,-80.91 -46.96,-146.52 -104.86,-146.52 -57.93,0 -104.87,65.62 -104.87,146.52 0,80.92 46.95,146.52 104.87,146.52 57.9,0 104.86,-65.6 104.86,-146.52zm202.85 0c0,-251.17 -194.9,-454.79 -435.3,-454.79 -33.93,0 -66.93,4.05 -98.61,11.74 -2.24,7.64 -4.41,15.04 -6.52,22.04 -10.56,35.03 -21.91,71.38 -35.41,107.11 37.96,-16.26 79.54,-25.24 123.12,-25.24 179.26,0 324.6,151.82 324.6,339.13 0,187.29 -145.33,339.13 -324.6,339.13 -43.58,0 -85.15,-8.96 -123.12,-25.24 13.5,35.74 24.85,72.07 35.41,107.11 2.11,7.02 4.28,14.4 6.52,22.06 31.68,7.67 64.7,11.72 98.61,11.72 240.4,0 435.3,-203.59 435.3,-454.78zm280.6 0c0,-91.69 -74.33,-166.04 -166.01,-166.04 -21,0 -41.05,3.93 -59.55,11.03 15.85,48.63 24.47,100.77 24.47,155.02 0,54.24 -8.61,106.39 -24.47,155.03 18.5,7.11 38.55,11 59.55,11 91.69,0 166.01,-74.32 166.01,-166.03zm-351.83 355.78c316.12,88.5 515.76,-18.92 679.48,-208.82 102.15,-118.48 199.62,-124.93 200.25,-146.96 -0.63,-22.02 -98.1,-28.47 -200.25,-146.95 -163.72,-189.89 -363.36,-297.32 -679.48,-208.83 46,43.68 83.5,96.97 109.59,156.82 23.68,-9.06 49.35,-14.07 76.24,-14.07 52.24,0 100.11,18.83 137.16,50.07 45.31,-3.24 78.52,-5.4 120.92,-3.95 103.04,3.47 314.45,132.31 313.95,166.91 0.5,34.61 -210.91,163.45 -313.95,166.93 -42.39,1.42 -75.61,-0.74 -120.92,-3.95 -37.05,31.24 -84.92,50.05 -137.16,50.05 -26.88,0 -52.56,-4.99 -76.24,-14.05 -26.09,59.85 -63.59,113.13 -109.59,156.8zm362.82 -237.22c43.38,3.05 70.69,5.45 107.33,4.23 75.79,-2.56 231.3,-97.33 230.92,-122.78 0.38,-25.46 -155.13,-120.24 -230.92,-122.77 -36.63,-1.25 -63.94,1.16 -107.33,4.22 22.74,33.87 36.02,74.66 36.02,118.54 0,43.88 -13.29,84.67 -36.02,118.56zm565.43 323.83c0,-46.66 -12.65,-99.76 -58.42,-99.76 -45.77,0 -264.27,109.72 -353.24,166.27 155.5,13.41 280.5,17.99 327.16,17.99 46.68,0 84.5,-37.83 84.5,-84.5zm163.48 142.02c125.04,2.22 198.49,-122.05 193.25,-229.93 -3.51,-72.65 -18.97,-160.81 -111.35,-169.16 -95.14,-8.6 -206.59,55.28 -275.5,93.04 63.85,-18.03 291.44,-73.85 287.8,99.64 -3.01,144.11 -179.24,121.29 -193.87,114.66 0,0 -61.12,79.18 -61.12,79.18 0,0 99.53,11.48 160.78,12.57zm24.83 -210.55c0,-37.96 -35.42,-68.76 -79.11,-68.76 -21.41,0 -40.83,7.41 -55.09,19.43 9.93,16.26 15.91,37.17 15.91,59.97 0,16.08 -2.97,31.2 -8.2,44.43 13.21,8.61 29.61,13.7 47.39,13.7 43.69,0 79.11,-30.78 79.11,-68.76zm-188.31 -816.22c0,46.66 -12.65,99.76 -58.42,99.76 -45.77,0 -264.27,-109.74 -353.24,-166.3 155.5,-13.41 280.5,-17.96 327.16,-17.96 46.68,0 84.5,37.81 84.5,84.49zm163.48 -142.04c125.04,-2.22 198.49,122.07 193.25,229.95 -3.51,72.63 -18.97,160.81 -111.35,169.15 -95.14,8.59 -206.59,-55.27 -275.5,-93.03 63.85,18.03 291.44,73.83 287.8,-99.64 -3.01,-144.11 -179.24,-121.3 -193.87,-114.66 0,0 -61.12,-79.18 -61.12,-79.18 0,0 99.53,-11.48 160.78,-12.59zm24.83 210.57c0,37.96 -35.42,68.75 -79.11,68.75 -21.41,0 -40.83,-7.41 -55.09,-19.44 9.93,-16.24 15.91,-37.15 15.91,-59.95 0,-16.09 -2.97,-31.22 -8.2,-44.45 13.21,-8.59 29.61,-13.69 47.39,-13.69 43.69,0 79.11,30.79 79.11,68.78zm-4968.39 1659.03c5.41,-58.4 29.95,-114.6 73.88,-158.52 51.5,-51.52 119.9,-76.41 188.91,-75.03l0.19 -0.17 205.53 4.5c35.95,0.78 66,30.83 66.78,66.78l4.5 205.19 -0.19 0.15c1.49,69.15 -23.4,137.7 -74.99,189.3 -43.92,43.93 -100.15,68.47 -158.55,73.91 60.84,-88.88 54.15,-208.55 -21.69,-284.39 -75.86,-75.86 -195.53,-82.55 -284.39,-21.71zm85.87 220.2c-57.22,-57.22 -70.41,-136.8 -29.45,-177.76 40.96,-40.93 120.52,-27.74 177.75,29.47 57.22,57.22 70.39,136.79 29.46,177.74 -40.96,40.95 -120.54,27.75 -177.76,-29.45zm-143.43 143.43c-177.6,-177.6 -183.76,-459.38 -13.77,-629.37 23.97,-24 50.19,-44.47 78,-61.44 7,3.84 13.76,7.52 20.22,10.98 32.22,17.31 65.96,34.98 100.77,50.72 -38.35,15.34 -74.1,38.39 -104.91,69.2 -126.77,126.76 -122.16,336.9 10.26,469.33 132.46,132.43 342.57,137.03 469.33,10.28 30.83,-30.83 53.87,-66.56 69.2,-104.9 15.74,34.81 33.41,68.52 50.71,100.77 3.47,6.44 7.16,13.21 10.98,20.2 -16.97,27.82 -37.45,54.03 -61.42,78.01 -170.01,170 -451.8,163.85 -629.39,-13.77zm-198.44 198.43c-64.84,-64.83 -64.84,-169.98 0,-234.79 14.84,-14.85 31.8,-26.28 49.88,-34.33 23.19,45.61 53.96,88.57 92.33,126.93 38.36,38.36 81.31,69.13 126.93,92.31 -8.06,18.1 -19.49,35.04 -34.32,49.88 -64.85,64.83 -169.97,64.83 -234.82,0zm500.37 2.77c-160.95,286.11 -378.06,351.32 -628.13,332.81 -156.01,-11.55 -229.49,52.81 -245.5,37.69 -15.13,-16.01 49.24,-89.5 37.7,-245.51 -18.53,-250.06 46.68,-467.16 332.79,-628.14 -1.66,63.43 9.52,127.62 33.41,188.39 -23.17,10.32 -44.87,24.97 -63.86,43.96 -36.96,36.93 -57.48,84.1 -61.59,132.39 -34.32,29.74 -59.33,51.73 -88.29,82.69 -70.41,75.31 -128.79,315.93 -103.97,340.03 24.11,24.83 264.7,-33.54 340.03,-103.96 30.97,-28.95 52.94,-53.95 82.7,-88.28 48.27,-4.14 95.44,-24.67 132.39,-61.62 19,-19 33.63,-40.67 43.94,-63.83 60.79,23.88 124.98,35.04 188.39,33.39zm-424.29 88.82c-28.53,32.83 -46.15,53.86 -72.92,78.86 -55.39,51.8 -232.37,94.76 -250.1,76.5 -18.26,-17.74 24.68,-194.73 76.48,-250.12 25.02,-26.77 46.04,-44.39 78.88,-72.91 7.88,40.05 27.31,78.26 58.35,109.29 31.04,31.04 69.28,50.5 109.31,58.38zm-170.86 628.79c-32.98,-32.98 -61.59,-79.51 -29.21,-111.85 32.34,-32.36 264.44,-109.27 367.35,-132.22 -100.48,119.46 -185.64,211.09 -218.65,244.07 -32.98,33 -86.48,33 -119.49,0zm-15.15 216.02c-86.84,90 -226.67,54.05 -299.24,-25.92 -48.87,-53.86 -100.3,-127.14 -40.88,-198.36 61.2,-73.35 185.17,-106.98 260.58,-129.02 -57.89,32.4 -258.27,153.85 -133.04,273.97 104.02,99.78 212.52,-40.98 218.17,-56.02 0,0 99.2,12.76 99.2,12.76 0,0 -62.24,78.5 -104.79,122.58zm-166.44 -131.31c-26.85,-26.85 -23.57,-73.67 7.31,-104.56 15.16,-15.15 34.11,-23.65 52.7,-25.22 4.46,18.51 15,37.52 31.16,53.65 11.36,11.37 24.15,19.97 37.21,25.63 -3.27,15.43 -11.26,30.61 -23.83,43.19 -30.88,30.88 -77.7,34.15 -104.55,7.31zm-444.02 -710.32c33.01,33 79.52,61.59 111.87,29.23 32.37,-32.36 109.26,-264.45 132.2,-367.36 -119.43,100.46 -211.06,185.63 -244.07,218.63 -33,33 -33,86.49 0,119.49zm-216.01 15.15c-89.99,86.84 -54.06,226.67 25.91,299.24 53.86,48.89 127.17,100.31 198.36,40.9 73.35,-61.21 107,-185.19 129.03,-260.59 -32.4,57.89 -153.86,258.27 -273.97,133.05 -99.78,-104.03 41,-212.54 56.03,-218.17 0,0 -12.77,-99.22 -12.77,-99.22 0,0 -78.52,62.26 -122.59,104.78zm131.33 166.44c26.85,26.86 73.64,23.59 104.55,-7.31 15.13,-15.15 23.63,-34.1 25.22,-52.69 -18.52,-4.46 -37.52,-15.02 -53.64,-31.14 -11.39,-11.36 -19.98,-24.17 -25.63,-37.22 -15.43,3.25 -30.64,11.24 -43.21,23.81 -30.89,30.89 -34.17,77.71 -7.29,104.55zm3937.52 -3714.89c-58.4,5.43 -114.61,29.97 -158.54,73.9 -51.52,51.51 -76.39,119.91 -75.01,188.91l-0.17 0.19 4.49 205.52c0.78,35.95 30.83,66 66.78,66.8l205.19 4.48 0.16 -0.18c69.14,1.48 137.69,-23.4 189.3,-75 43.92,-43.93 68.46,-100.13 73.88,-158.52 -88.86,60.83 -208.52,54.12 -284.38,-21.72 -75.84,-75.84 -82.54,-195.52 -21.7,-284.38zm220.2 85.89c-57.21,-57.24 -136.8,-70.41 -177.76,-29.47 -40.94,40.96 -27.76,120.54 29.48,177.76 57.22,57.22 136.78,70.41 177.73,29.45 40.96,-40.94 27.76,-120.52 -29.45,-177.74zm143.43 -143.45c-177.6,-177.6 -459.37,-183.76 -629.38,-13.78 -23.99,23.98 -44.45,50.2 -61.43,78.04 3.83,6.98 7.53,13.74 10.98,20.19 17.31,32.26 34.99,65.97 50.72,100.78 15.32,-38.34 38.38,-74.09 69.2,-104.91 126.77,-126.76 336.88,-122.17 469.34,10.28 132.43,132.44 137.03,342.56 10.26,469.33 -30.81,30.8 -66.54,53.85 -104.9,69.2 34.81,15.71 68.54,33.39 100.77,50.7 6.46,3.47 13.21,7.16 20.21,11 27.82,-17 54.03,-37.46 78.02,-61.44 170,-170 163.81,-451.8 -13.78,-629.4zm198.44 -198.41c-64.83,-64.83 -169.98,-64.83 -234.81,0 -14.85,14.82 -26.27,31.78 -34.32,49.89 45.61,23.18 88.57,53.95 126.92,92.31 38.38,38.35 69.15,81.3 92.33,126.92 18.08,-8.06 35.04,-19.48 49.88,-34.33 64.84,-64.84 64.84,-169.95 0,-234.79zm2.78 500.36c286.1,-160.96 351.31,-378.08 332.79,-628.14 -11.55,-156 52.83,-229.48 37.69,-245.5 -16.01,-15.13 -89.49,49.24 -245.5,37.69 -250.06,-18.5 -467.18,46.69 -628.13,332.79 63.4,-1.63 127.61,9.52 188.39,33.41 10.32,-23.16 24.95,-44.85 43.94,-63.85 36.96,-36.96 84.12,-57.48 132.39,-61.6 29.77,-34.33 51.73,-59.33 82.72,-88.3 75.31,-70.41 315.9,-128.78 340.02,-103.96 24.81,24.11 -33.56,264.72 -103.97,340.02 -28.97,30.98 -53.97,52.94 -88.3,82.71 -4.11,48.29 -24.64,95.43 -61.61,132.39 -18.99,18.99 -40.69,33.62 -63.84,43.96 23.88,60.77 35.05,124.96 33.41,188.37zm88.8 -424.29c32.85,-28.52 53.86,-46.14 78.89,-72.91 51.8,-55.42 94.74,-232.39 76.48,-250.12 -17.74,-18.26 -194.72,24.7 -250.11,76.48 -26.77,25.03 -44.38,46.06 -72.93,78.89 40.06,7.88 78.29,27.31 109.3,58.36 31.04,31.04 50.49,69.26 58.36,109.31zm628.81 -170.87c-33,-32.98 -79.5,-61.58 -111.87,-29.22 -32.35,32.36 -109.24,264.46 -132.2,367.37 119.44,-100.49 211.07,-185.66 244.07,-218.64 33,-33 33,-86.49 0,-119.51zm216.02 -15.15c89.98,-86.83 54.04,-226.66 -25.93,-299.24 -53.86,-48.88 -127.15,-100.31 -198.35,-40.88 -73.36,61.21 -106.99,185.17 -129.02,260.59 32.4,-57.89 153.84,-258.28 273.96,-133.05 99.79,104.03 -40.98,212.52 -56.02,218.17 0,0 12.76,99.2 12.76,99.2 0,0 78.52,-62.24 122.6,-104.79zm-131.32 -166.43c-26.85,-26.85 -73.65,-23.58 -104.56,7.3 -15.14,15.15 -23.63,34.13 -25.22,52.69 18.53,4.48 37.52,15.04 53.64,31.15 11.4,11.37 19.99,24.18 25.63,37.23 15.43,-3.26 30.63,-11.25 43.2,-23.81 30.88,-30.89 34.17,-77.71 7.3,-104.56zm-710.3 -444.03c32.98,33 61.6,79.5 29.23,111.86 -32.36,32.36 -264.45,109.28 -367.38,132.21 100.48,-119.44 185.65,-211.07 218.65,-244.07 32.98,-32.98 86.5,-32.98 119.5,0zm15.15 -216.02c86.84,-89.98 226.67,-54.03 299.24,25.92 48.87,53.88 100.31,127.15 40.88,198.36 -61.19,73.36 -185.17,107 -260.58,129.03 57.89,-32.39 258.27,-153.87 133.04,-273.96 -104.04,-99.8 -212.52,40.98 -218.17,56.02 0,0 -99.2,-12.78 -99.2,-12.78 0,0 62.24,-78.49 104.79,-122.59zm166.44 131.33c26.85,26.85 23.57,73.67 -7.31,104.55 -15.15,15.16 -34.1,23.66 -52.69,25.23 -4.46,-18.52 -15.02,-37.52 -31.16,-53.65 -11.38,-11.37 -24.16,-19.99 -37.21,-25.63 3.25,-15.43 11.24,-30.63 23.81,-43.19 30.89,-30.9 77.7,-34.17 104.56,-7.31zm-532.36 3937.52c-5.41,-58.4 -29.96,-114.6 -73.88,-158.52 -51.51,-51.52 -119.9,-76.41 -188.91,-75.03l-0.2 -0.17 -205.54 4.5c-35.95,0.78 -66,30.83 -66.78,66.78l-4.49 205.19 0.2 0.15c-1.5,69.15 23.39,137.7 74.98,189.3 43.93,43.93 100.14,68.47 158.54,73.91 -60.85,-88.88 -54.14,-208.55 21.7,-284.39 75.86,-75.86 195.52,-82.55 284.38,-21.71zm-85.87 220.2c57.21,-57.22 70.41,-136.8 29.45,-177.76 -40.94,-40.93 -120.51,-27.74 -177.73,29.47 -57.24,57.22 -70.41,136.79 -29.48,177.74 40.96,40.95 120.54,27.75 177.76,-29.45zm143.43 143.43c177.6,-177.6 183.78,-459.38 13.78,-629.37 -23.98,-24 -50.19,-44.47 -78.02,-61.44 -7,3.84 -13.76,7.52 -20.21,10.98 -32.23,17.31 -65.96,34.98 -100.77,50.72 38.36,15.34 74.09,38.39 104.9,69.2 126.77,126.76 122.17,336.9 -10.26,469.33 -132.46,132.43 -342.57,137.03 -469.34,10.28 -30.81,-30.83 -53.87,-66.56 -69.2,-104.9 -15.73,34.81 -33.41,68.52 -50.72,100.77 -3.45,6.44 -7.15,13.21 -10.98,20.2 16.98,27.82 37.44,54.03 61.43,78.01 170.01,170 451.78,163.85 629.38,-13.77zm198.44 198.43c64.84,-64.83 64.84,-169.98 0,-234.79 -14.85,-14.85 -31.8,-26.28 -49.88,-34.33 -23.18,45.61 -53.95,88.57 -92.33,126.93 -38.35,38.36 -81.31,69.13 -126.92,92.31 8.05,18.1 19.48,35.04 34.32,49.88 64.83,64.83 169.98,64.83 234.81,0zm-500.38 2.77c160.95,286.11 378.08,351.32 628.13,332.81 156.01,-11.55 229.49,52.81 245.5,37.69 15.14,-16.01 -49.24,-89.5 -37.69,-245.51 18.52,-250.06 -46.69,-467.16 -332.79,-628.14 1.64,63.43 -9.52,127.62 -33.41,188.39 23.15,10.32 44.85,24.97 63.84,43.96 36.96,36.93 57.49,84.1 61.61,132.39 34.32,29.74 59.33,51.73 88.3,82.69 70.41,75.31 128.78,315.93 103.97,340.03 -24.12,24.83 -264.71,-33.54 -340.02,-103.96 -30.99,-28.95 -52.94,-53.95 -82.72,-88.28 -48.27,-4.14 -95.43,-24.67 -132.39,-61.62 -18.99,-19 -33.62,-40.67 -43.94,-63.83 -60.78,23.88 -124.99,35.04 -188.39,33.39zm424.28 88.82c28.55,32.83 46.16,53.86 72.93,78.86 55.39,51.8 232.37,94.76 250.11,76.5 18.26,-17.74 -24.68,-194.73 -76.48,-250.12 -25.03,-26.77 -46.04,-44.39 -78.89,-72.91 -7.87,40.05 -27.32,78.26 -58.36,109.29 -31.01,31.04 -69.24,50.5 -109.3,58.38zm170.87 628.79c32.98,-32.98 61.6,-79.51 29.23,-111.85 -32.36,-32.36 -264.45,-109.27 -367.38,-132.22 100.48,119.46 185.65,211.09 218.65,244.07 32.98,33 86.5,33 119.5,0zm15.15 216.02c86.84,90 226.67,54.05 299.24,-25.92 48.87,-53.86 100.31,-127.14 40.88,-198.36 -61.19,-73.35 -185.17,-106.98 -260.58,-129.02 57.89,32.4 258.27,153.85 133.04,273.97 -104.04,99.78 -212.52,-40.98 -218.17,-56.02 0,0 -99.2,12.76 -99.2,12.76 0,0 62.24,78.5 104.79,122.58zm166.44 -131.31c26.85,-26.85 23.57,-73.67 -7.31,-104.56 -15.15,-15.15 -34.1,-23.65 -52.69,-25.22 -4.46,18.51 -15.02,37.52 -31.16,53.65 -11.38,11.37 -24.16,19.97 -37.21,25.63 3.25,15.43 11.24,30.61 23.81,43.19 30.89,30.88 77.7,34.15 104.56,7.31zm444.02 -710.32c-33,33 -79.5,61.59 -111.87,29.23 -32.35,-32.36 -109.24,-264.45 -132.2,-367.36 119.44,100.46 211.07,185.63 244.07,218.63 33,33 33,86.49 0,119.49zm216.02 15.15c89.98,86.84 54.04,226.67 -25.93,299.24 -53.86,48.89 -127.15,100.31 -198.35,40.9 -73.36,-61.21 -106.99,-185.19 -129.02,-260.59 32.4,57.89 153.84,258.27 273.96,133.05 99.79,-104.03 -40.98,-212.54 -56.02,-218.17 0,0 12.76,-99.22 12.76,-99.22 0,0 78.52,62.26 122.6,104.78zm-131.32 166.44c-26.85,26.86 -73.65,23.59 -104.56,-7.31 -15.14,-15.15 -23.63,-34.1 -25.22,-52.69 18.53,-4.46 37.52,-15.02 53.64,-31.14 11.4,-11.36 19.99,-24.17 25.63,-37.22 15.43,3.25 30.63,11.24 43.2,23.81 30.88,30.89 34.17,77.71 7.3,104.55zm-3937.53 -3714.89c58.4,5.43 114.63,29.97 158.55,73.9 51.51,51.51 76.38,119.91 75,188.91l0.18 0.19 -4.5 205.52c-0.78,35.95 -30.83,66 -66.78,66.8l-205.18 4.48 -0.16 -0.18c-69.16,1.48 -137.69,-23.4 -189.3,-75 -43.93,-43.93 -68.48,-100.13 -73.88,-158.52 88.86,60.83 208.53,54.12 284.39,-21.72 75.84,-75.84 82.53,-195.52 21.69,-284.38zm-220.2 85.89c57.22,-57.24 136.8,-70.41 177.76,-29.47 40.93,40.96 27.76,120.54 -29.46,177.76 -57.23,57.22 -136.79,70.41 -177.75,29.45 -40.95,-40.94 -27.76,-120.52 29.45,-177.74zm-143.43 -143.45c177.6,-177.6 459.38,-183.76 629.39,-13.78 23.97,23.98 44.45,50.2 61.42,78.04 -3.82,6.98 -7.51,13.74 -10.98,20.19 -17.3,32.26 -34.97,65.97 -50.71,100.78 -15.33,-38.34 -38.37,-74.09 -69.2,-104.91 -126.77,-126.76 -336.88,-122.17 -469.33,10.28 -132.43,132.44 -137.04,342.56 -10.26,469.33 30.8,30.8 66.55,53.85 104.91,69.2 -34.8,15.71 -68.54,33.39 -100.77,50.7 -6.46,3.47 -13.22,7.16 -20.22,11 -27.81,-17 -54.03,-37.46 -78,-61.44 -169.99,-170 -163.83,-451.8 13.77,-629.4zm-198.44 -198.41c64.85,-64.83 169.97,-64.83 234.82,0 14.83,14.82 26.26,31.78 34.32,49.89 -45.62,23.18 -88.57,53.95 -126.93,92.31 -38.37,38.35 -69.14,81.3 -92.33,126.92 -18.08,-8.06 -35.04,-19.48 -49.88,-34.33 -64.84,-64.84 -64.84,-169.95 0,-234.79zm-2.77 500.36c-286.11,-160.96 -351.32,-378.08 -332.79,-628.14 11.54,-156 -52.83,-229.48 -37.7,-245.5 16.01,-15.13 89.49,49.24 245.5,37.69 250.07,-18.5 467.19,46.69 628.13,332.79 -63.4,-1.63 -127.59,9.52 -188.39,33.41 -10.31,-23.16 -24.94,-44.85 -43.94,-63.85 -36.95,-36.96 -84.12,-57.48 -132.39,-61.6 -29.75,-34.33 -51.72,-59.33 -82.7,-88.3 -75.32,-70.41 -315.92,-128.78 -340.03,-103.96 -24.82,24.11 33.56,264.72 103.97,340.02 28.96,30.98 53.97,52.94 88.29,82.71 4.11,48.29 24.64,95.43 61.59,132.39 19,18.99 40.69,33.62 63.86,43.96 -23.89,60.77 -35.07,124.96 -33.41,188.37zm-88.8 -424.29c-32.85,-28.52 -53.86,-46.14 -78.88,-72.91 -51.8,-55.42 -94.74,-232.39 -76.48,-250.12 17.73,-18.26 194.7,24.7 250.1,76.48 26.77,25.03 44.39,46.06 72.92,78.89 -40.03,7.88 -78.27,27.31 -109.31,58.36 -31.04,31.04 -50.47,69.26 -58.35,109.31zm-628.81 -170.87c33.01,-32.98 79.52,-61.58 111.87,-29.22 32.37,32.36 109.26,264.46 132.2,367.37 -119.43,-100.49 -211.06,-185.66 -244.07,-218.64 -33,-33 -33,-86.49 0,-119.51zm-216.01 -15.15c-89.99,-86.83 -54.06,-226.66 25.91,-299.24 53.86,-48.88 127.17,-100.31 198.36,-40.88 73.35,61.21 107,185.17 129.03,260.59 -32.4,-57.89 -153.86,-258.28 -273.97,-133.05 -99.78,104.03 41,212.52 56.03,218.17 0,0 -12.77,99.2 -12.77,99.2 0,0 -78.52,-62.24 -122.59,-104.79zm131.33 -166.43c26.85,-26.85 73.64,-23.58 104.55,7.3 15.13,15.15 23.63,34.13 25.22,52.69 -18.52,4.48 -37.52,15.04 -53.64,31.15 -11.39,11.37 -19.98,24.18 -25.63,37.23 -15.43,-3.26 -30.64,-11.25 -43.21,-23.81 -30.89,-30.89 -34.17,-77.71 -7.29,-104.56zm710.29 -444.03c-32.98,33 -61.59,79.5 -29.21,111.86 32.34,32.36 264.44,109.28 367.35,132.21 -100.48,-119.44 -185.64,-211.07 -218.65,-244.07 -32.98,-32.98 -86.48,-32.98 -119.49,0zm-15.15 -216.02c-86.84,-89.98 -226.67,-54.03 -299.24,25.92 -48.87,53.88 -100.3,127.15 -40.88,198.36 61.2,73.36 185.17,107 260.58,129.03 -57.89,-32.39 -258.27,-153.87 -133.04,-273.96 104.02,-99.8 212.52,40.98 218.17,56.02 0,0 99.2,-12.78 99.2,-12.78 0,0 -62.24,-78.49 -104.79,-122.59zm-166.44 131.33c-26.85,26.85 -23.57,73.67 7.31,104.55 15.16,15.16 34.11,23.66 52.7,25.23 4.46,-18.52 15,-37.52 31.16,-53.65 11.36,-11.37 24.15,-19.99 37.21,-25.63 -3.27,-15.43 -11.26,-30.63 -23.83,-43.19 -30.88,-30.9 -77.7,-34.17 -104.55,-7.31zm2123.63 1330.18c730.17,0 1322.11,591.93 1322.11,1322.11 0,730.19 -591.94,1322.11 -1322.11,1322.11 -730.19,0 -1322.11,-591.93 -1322.11,-1322.11 0,-730.18 591.92,-1322.11 1322.11,-1322.11zm-489.75 1901.72l80.94 0c42.27,0 69.76,-8.24 82.64,-24.85 12.74,-16.47 19.11,-54.54 19.11,-114.03 0,-55.46 -7.61,-92.42 -22.84,-110.59 -15.2,-18.19 -45.66,-27.34 -91.64,-27.34l-68.2 0 0 276.81zm-496.62 -169.43l-186.96 63.25 -20.46 -60.53c-7.77,-22.93 -11.89,-38.16 -12.38,-45.74 -0.8,-11.69 2.25,-22.71 9.21,-33.1 6.96,-10.39 17.86,-18.12 32.75,-23.17 11.48,-3.88 21.83,-5.04 31.06,-3.57 9.24,1.54 17.16,4.72 23.81,9.61 6.6,4.89 11.78,10.41 15.45,16.55 4.83,8.4 10.13,21.1 15.9,38.16l8.32 24.54 70.48 -23.84 12.81 37.85zm-168.15 14.7l53.25 -18.02 -6.96 -20.59c-5.02,-14.84 -9.37,-24.37 -13.02,-28.71 -3.64,-4.35 -8.01,-7.24 -13.18,-8.63 -5.15,-1.42 -10.46,-1.23 -16.04,0.65 -6.83,2.33 -11.78,6.21 -14.86,11.69 -3.09,5.5 -4.17,11.44 -3.22,17.96 0.67,4.78 3.3,13.91 7.87,27.52l6.16 18.13zm108.08 -222.7l-161.45 28.83 10.27 57.52 -32.85 5.88 -27.5 -154.14 32.82 -5.86 10.22 57.25 161.46 -28.81 7.03 39.33zm-12.93 -80.38l-37.65 2.87 -2.88 -37.66 37.67 -2.86 2.86 37.64zm-71.57 -262.04l14.73 -37.58c21.21,7.57 36.55,18.63 46.03,33.19 9.45,14.55 13.38,32.34 11.78,53.46 -1.98,26.16 -12.53,46.95 -31.69,62.45 -19.15,15.44 -44.19,22.02 -75.22,19.67 -32.75,-2.49 -57.58,-12.9 -74.43,-31.2 -16.85,-18.27 -24.22,-41.22 -22.12,-68.79 1.82,-24.12 10.46,-43.11 25.83,-57.06 9.13,-8.34 21.74,-14.1 37.88,-17.38l6.33 40c-10.33,1.57 -18.78,5.8 -25.23,12.73 -6.49,6.96 -10.09,15.74 -10.88,26.27 -1.14,14.61 3.2,26.87 12.99,36.74 9.76,9.89 26.37,15.72 49.81,17.5 24.83,1.9 42.91,-1.24 54.11,-9.37 11.27,-8.19 17.43,-19.42 18.5,-33.76 0.82,-10.57 -1.85,-19.94 -7.99,-28.06 -6.15,-8.13 -16.28,-14.41 -30.44,-18.82zm127.31 -227.04l-11.76 41.39 -47.87 4.11 -21.62 76.15 38.72 28.06 -11.52 40.65 -168.93 -127.62 11.54 -40.61 211.45 -22.13zm-95.26 48.87l-77.77 6.44 63 45.57 14.77 -52.02zm99.43 -58.01l-179.82 -81.31 16.46 -36.42 70.83 32.04 32.02 -70.84 -70.83 -32 16.46 -36.43 179.84 81.3 -16.45 36.42 -78.65 -35.54 -32 70.83 78.61 35.54 -16.48 36.42zm183.42 -314.71l-24.95 35.08 -46.5 -12.15 -45.86 64.5 27.1 39.41 -24.48 34.45 -116.43 -176.82 24.46 -34.42 206.66 49.96zm-106.14 14.15l-75.41 -19.98 44.09 64.06 31.33 -44.07zm132.94 -39.27l-60.1 -57.31 -132.68 -26.5 32.24 -33.82 88.77 20.14 -25.2 -86.81 31.64 -33.17 32.98 131.43 59.94 57.12 -27.59 28.93zm204.96 -179.71l-33.84 26.59 -41.16 -24.79 -62.25 48.91 14.87 45.46 -33.23 26.12 -61.69 -202.52 33.19 -26.09 184.1 106.31zm-105.8 -16.41l-66.7 -40.5 24.19 73.9 42.51 -33.41zm80.06 -197.88l71.9 -32.52c14.28,-6.46 25.12,-10.67 32.65,-12.65 7.58,-1.98 14.94,-2.31 22.16,-1.09 7.21,1.26 14.06,4.17 20.58,8.73 6.51,4.57 11.54,10.79 15.02,18.52 3.79,8.36 5.02,17.13 3.67,26.17 -1.33,9.07 -5.13,17.09 -11.29,24.09 12.4,-1.7 23.22,-0.04 32.61,4.99 9.33,5.05 16.35,12.77 21.07,23.18 3.7,8.21 5.41,17.02 5.11,26.49 -0.3,9.46 -2.71,18 -7.2,25.65 -4.5,7.57 -11.34,14.09 -20.51,19.56 -5.74,3.33 -20.16,10.37 -43.23,20.99l-61.25 27.71 -81.28 -179.83zm49.92 13.43l18.74 41.42 23.77 -10.75c14.12,-6.38 22.81,-10.55 26.05,-12.52 5.87,-3.51 9.8,-7.87 11.76,-13.03 1.94,-5.17 1.59,-10.61 -1,-16.38 -2.53,-5.59 -6.1,-9.37 -10.71,-11.44 -4.64,-2.1 -10.15,-2.13 -16.49,-0.12 -3.78,1.21 -14.22,5.69 -31.28,13.37l-20.83 9.45zm32.24 71.32l21.81 48.21 33.67 -15.21c13.04,-5.9 21.2,-10.05 24.4,-12.33 4.95,-3.45 8.26,-7.83 9.93,-13.16 1.66,-5.39 1.09,-11.23 -1.82,-17.63 -2.45,-5.45 -5.81,-9.43 -10.16,-11.99 -4.28,-2.6 -9.34,-3.65 -15.07,-3.12 -5.7,0.52 -16.86,4.5 -33.41,11.97l-29.33 13.27zm170.81 19.19l-53.93 -189.86 80.75 -22.93c20.28,-5.76 35.55,-8.23 45.69,-7.43 10.21,0.77 19.27,4.75 27.27,11.89 8,7.17 13.61,16.33 16.8,27.55 4.05,14.28 3.24,27.23 -2.48,38.88 -5.73,11.64 -16.52,21.01 -32.46,28.17 9.65,2.47 17.95,5.84 24.95,10.11 7.02,4.24 17.2,12.48 30.49,24.66l33.66 30.46 -45.82 13.02 -39.25 -33.64c-14.04,-11.94 -23.43,-19.28 -28.19,-22.09 -4.72,-2.76 -9.31,-4.33 -13.77,-4.59 -4.51,-0.24 -11.16,0.88 -20.01,3.4l-7.78 2.19 22.53 79.29 -38.45 10.93zm7.35 -120.45l28.38 -8.05c18.38,-5.22 29.58,-9.27 33.74,-12.12 4.14,-2.83 6.99,-6.56 8.46,-11.09 1.53,-4.54 1.45,-9.68 -0.16,-15.37 -1.82,-6.41 -5,-11.04 -9.54,-14.07 -4.52,-2.95 -10.03,-4.06 -16.5,-3.32 -3.27,0.44 -12.65,2.87 -28.16,7.28l-29.92 8.5 13.7 48.24zm351.49 58.26l-42.91 3.26 -20.41 -43.51 -78.93 6 -12.94 46.04 -42.13 3.2 61.41 -202.61 42.11 -3.18 93.8 190.79zm-78.77 -72.52l-32.89 -70.75 -21.02 74.85 53.91 -4.1zm174.39 -117.81l39.87 3.02 -9.49 124.69c-1.24,16.3 -3.62,28.76 -7.17,37.33 -4.72,11.15 -12.38,19.82 -23.04,26.04 -10.61,6.13 -24.19,8.61 -40.78,7.35 -19.42,-1.49 -33.95,-8.03 -43.55,-19.67 -9.69,-11.66 -13.75,-28 -12.22,-48.99l37.98 -1.53c-0.38,11.26 0.61,19.31 3.09,24.14 3.72,7.39 9.91,11.4 18.62,12.06 8.76,0.66 15.18,-1.37 19.17,-6.18 4.02,-4.78 6.64,-15.12 7.86,-31.06l9.66 -127.19zm229.52 240.88l-41.95 -9.68 -6.49 -47.61 -77.12 -17.81 -26.09 40.08 -41.2 -9.48 119.06 -175.07 41.14 9.48 32.66 210.1zm-53.57 -92.72l-10.29 -77.33 -42.39 65.19 52.69 12.14zm115.29 112.78l89.96 -175.66 53.29 27.28 -29.86 135.92 92.47 -103.85 53.39 27.35 -89.97 175.66 -32.86 -16.84 70.7 -138.35 -105.47 120.54 -34.16 -17.5 36.34 -155.94 -70.96 138.23 -32.87 -16.84zm334.06 211.16l-33.82 -26.6 14.35 -45.84 -62.24 -48.91 -40.67 25.18 -33.21 -26.09 182.17 -107.83 33.2 26.07 -59.79 204.02zm-9.06 -106.69l23.57 -74.36 -66.07 40.95 42.51 33.41zm15.37 114.61l142.85 -136.18 57.92 60.75c14.54,15.27 23.83,27.59 27.88,36.96 4.05,9.39 4.76,19.24 2.18,29.64 -2.64,10.44 -8.11,19.65 -16.54,27.72 -10.75,10.23 -22.59,15.54 -35.57,15.91 -12.94,0.37 -26.29,-4.82 -40.03,-15.58 2.3,9.69 3.2,18.61 2.67,26.78 -0.48,8.21 -3.02,21.05 -7.61,38.5l-11.25 43.98 -32.87 -34.47 11.47 -50.41c4,-17.98 6.13,-29.72 6.39,-35.26 0.27,-5.43 -0.5,-10.24 -2.35,-14.31 -1.88,-4.09 -5.98,-9.47 -12.31,-16.12l-5.59 -5.85 -59.64 56.87 -27.59 -28.93zm109.96 -49.63l20.38 21.35c13.18,13.83 21.97,21.88 26.44,24.22 4.44,2.31 9.06,3.11 13.75,2.31 4.74,-0.75 9.26,-3.22 13.55,-7.31 4.81,-4.59 7.44,-9.56 7.97,-14.98 0.54,-5.38 -1.07,-10.78 -4.73,-16.16 -1.92,-2.7 -8.45,-9.85 -19.57,-21.54l-21.47 -22.5 -36.32 34.61zm16.46 189.2l166.15 -106.52 21.55 33.67 -73.59 47.17 117.07 20.62 28.91 45.09 -104.91 -21.21 -59.16 130.97 -27.82 -43.4 48.7 -95.72 -45.11 -9.23 -50.22 32.21 -21.57 -33.64zm100.11 158.54l183.61 -72.38 53.59 135.9 -31.02 12.25 -38.94 -98.74 -40.76 16.06 36.19 91.81 -31.02 12.24 -36.18 -91.81 -49.75 19.62 40.31 102.3 -31.02 12.24 -55 -139.5zm73.73 203.69l159.81 -36.88 -13.14 -56.94 32.48 -7.49 35.2 152.56 -32.49 7.48 -13.07 -56.67 -159.81 36.88 -8.99 -38.94zm22.97 108.7l195.78 -24.87 5.05 39.65 -195.78 24.88 -5.05 -39.66zm10.46 65.87l197.29 -4.98 0.99 38.67 -130.19 84.53 132.21 -3.33 0.94 36.91 -197.29 5 -1.02 -39.91 127.68 -83.23 -129.7 3.27 -0.92 -36.92zm198.28 222.82l-12.8 71.56c-2.87,16.13 -6.3,28.22 -10.29,36.24 -5.38,10.75 -13.09,19.46 -23.14,26.02 -9.99,6.61 -21.59,10.87 -34.77,12.92 -13.15,2 -28.85,1.37 -47.04,-1.86 -15.99,-2.87 -29.39,-7.3 -40.25,-13.35 -13.3,-7.37 -23.51,-16.34 -30.63,-26.89 -5.44,-7.97 -8.95,-18.06 -10.59,-30.26 -1.22,-9.14 -0.53,-20.93 2.07,-35.39l13.13 -73.67 194.31 34.69zm-39.87 33.49l-128.62 -22.98 -5.22 29.19c-1.94,10.9 -2.7,18.88 -2.34,23.94 0.44,6.66 2.21,12.4 5.26,17.23 3.05,4.89 8.69,9.39 16.89,13.56 8.22,4.21 19.89,7.65 34.89,10.34 15.02,2.68 26.74,3.41 35.27,2.19 8.53,-1.2 15.43,-3.78 20.8,-7.72 5.32,-3.96 9.48,-9.43 12.37,-16.47 2.19,-5.2 4.73,-15.81 7.56,-31.72l3.15 -17.55zm-93.04 140c19.06,6.44 34.09,14.74 45.15,24.83 8.08,7.43 14.68,16.16 19.77,26.1 5.08,9.91 7.97,19.84 8.71,29.86 0.97,13.33 -1.09,27.6 -6.24,42.83 -9.33,27.59 -25.36,46.71 -48.06,57.5 -22.76,10.74 -49.35,10.95 -79.86,0.62 -30.24,-10.22 -51.11,-26.46 -62.65,-48.64 -11.54,-22.19 -12.65,-47.06 -3.35,-74.51 9.44,-27.81 25.41,-47.07 47.96,-57.72 22.54,-10.68 48.72,-10.99 78.58,-0.88zm-11.89 39.32c-21.2,-7.17 -38.92,-7.68 -53.2,-1.61 -14.24,6.11 -23.93,16.69 -29.02,31.76 -5.11,15.09 -3.86,29.29 3.72,42.66 7.59,13.34 22.25,23.68 43.93,31.03 21.46,7.25 39.07,7.97 52.79,2.09 13.76,-5.83 23.26,-16.54 28.54,-32.15 5.26,-15.58 4.17,-29.98 -3.26,-43.11 -7.48,-13.15 -21.96,-23.37 -43.5,-30.68zm-571.94 -570.91c-454.61,482.04 -994.25,-347.22 -1465.14,66.5 264.63,-610.19 944.57,174.83 1465.14,-66.5zm327.8 -230.74c-431.22,462.26 -703.02,-293.29 -1217.06,66.51 307.81,-559.84 709.08,167.64 1217.06,-66.51zm-1361.79 745.16l57.8 0c44.12,0 73.31,-7.63 87.13,-22.68 13.99,-15.22 20.98,-48.64 20.98,-100.21 0,-56.06 -6.06,-90.41 -18.32,-103.13 -12.27,-12.76 -44.11,-19.11 -95.38,-19.11l-52.2 0 0 245.13zm-216.22 302.91l65.24 0 0 -548.04 -65.24 0 0 -27.95 338.02 0c63.22,0 112.94,13.04 149.59,38.98 36.51,25.93 54.82,61.05 54.82,105.33 0,36.65 -14.59,66.48 -43.64,89.48 -29.21,22.83 -72.39,38.36 -129.86,46.6l0 7.76c65.56,5.43 114.96,20.81 148.03,46.29 33.08,25.32 49.73,60.13 49.73,104.4 0,51.26 -21.13,91.96 -63.22,121.93 -42.26,29.98 -99.59,45.06 -171.82,45.06l-331.64 0 0 -29.83zm646.67 29.83l0 -29.83 44.59 0c11.97,0 20.97,-3.74 27.17,-11.35 6.21,-7.61 9.32,-18.65 9.32,-33.24l0 -503.46 -81.08 0 0 -27.95 261.59 0 106.41 349.82 112.93 -349.82 248.4 0 0 27.95 -78.76 0 0 548.04 76.44 0 0 29.83 -307.59 0 0 -29.83 82.03 0 0 -540.28 -1.87 0 -178.95 570.11 -31.7 0 -176.15 -576.01 0 498.78c0,17.71 3.27,30 9.63,36.98 6.37,7 17.71,10.42 34.18,10.42l40.09 0 0 29.83 -196.68 0zm2885.84 1002.55c36.41,-39.37 24.15,-113.61 -27.35,-165.86 -51.54,-52.21 -122.81,-62.65 -159.23,-23.29 -36.43,39.37 -24.16,113.61 27.37,165.84 51.52,52.23 122.81,62.67 159.2,23.3zm318.05 -744.19c-3.3,53.53 -65.41,96 -138.78,94.85 -73.35,-1.14 -130.16,-45.46 -126.87,-98.98 3.28,-53.5 65.42,-95.98 138.77,-94.83 73.35,1.13 130.17,45.44 126.89,98.97zm-318.05 -2479.68c36.41,39.36 24.15,113.62 -27.35,165.84 -51.54,52.23 -122.81,62.67 -159.23,23.31 -36.43,-39.39 -24.16,-113.64 27.37,-165.86 51.52,-52.23 122.81,-62.65 159.2,-23.28zm318.05 744.19c-3.3,-53.53 -65.41,-96 -138.78,-94.85 -73.35,1.14 -130.16,45.44 -126.87,98.97 3.28,53.52 65.42,95.97 138.77,94.85 73.35,-1.15 130.17,-45.45 126.89,-98.96zm-5971.15 2479.68c-36.42,-39.37 -24.16,-113.61 27.37,-165.86 51.52,-52.21 122.8,-62.65 159.22,-23.29 36.41,39.37 24.15,113.61 -27.37,165.84 -51.51,52.23 -122.79,62.67 -159.21,23.3zm-318.04 -744.19c3.3,53.53 65.42,96 138.78,94.85 73.35,-1.14 130.16,-45.46 126.87,-98.98 -3.27,-53.5 -65.41,-95.98 -138.78,-94.83 -73.35,1.13 -130.15,45.44 -126.87,98.97zm318.04 -2479.68c-36.42,39.36 -24.16,113.62 27.37,165.84 51.52,52.23 122.8,62.67 159.22,23.31 36.41,-39.39 24.15,-113.64 -27.37,-165.86 -51.51,-52.23 -122.81,-62.65 -159.21,-23.28zm-318.04 744.19c3.3,-53.53 65.42,-96 138.78,-94.85 73.35,1.14 130.16,45.44 126.87,98.97 -3.27,53.52 -65.41,95.97 -138.78,94.85 -73.35,-1.15 -130.15,-45.45 -126.87,-98.96zm1532.65 3694.25c39.39,36.41 113.62,24.15 165.86,-27.37 52.22,-51.52 62.64,-122.8 23.28,-159.22 -39.37,-36.41 -113.61,-24.15 -165.84,27.38 -52.23,51.51 -62.64,122.79 -23.3,159.21zm744.18 318.04c-53.51,-3.29 -95.98,-65.42 -94.83,-138.77 1.13,-73.35 45.44,-130.17 98.97,-126.88 53.52,3.27 95.98,65.42 94.83,138.77 -1.12,73.35 -45.44,130.16 -98.97,126.88zm2479.71 -318.04c-39.39,36.41 -113.64,24.15 -165.86,-27.37 -52.23,-51.52 -62.66,-122.8 -23.28,-159.22 39.36,-36.41 113.61,-24.15 165.84,27.38 52.22,51.51 62.65,122.81 23.3,159.21zm-744.2 318.04c53.51,-3.29 95.98,-65.42 94.83,-138.77 -1.12,-73.35 -45.44,-130.17 -98.96,-126.88 -53.53,3.27 -95.98,65.42 -94.83,138.77 1.13,73.35 45.44,130.16 98.96,126.88zm-2479.69 -5971.15c39.39,-36.41 113.62,-24.15 165.86,27.36 52.22,51.53 62.64,122.81 23.28,159.22 -39.37,36.42 -113.61,24.16 -165.84,-27.37 -52.23,-51.51 -62.64,-122.81 -23.3,-159.21zm744.18 -318.04c-53.51,3.3 -95.98,65.42 -94.83,138.78 1.13,73.35 45.44,130.17 98.97,126.88 53.52,-3.28 95.98,-65.43 94.83,-138.78 -1.12,-73.35 -45.44,-130.17 -98.97,-126.88zm2479.71 318.04c-39.39,-36.41 -113.64,-24.15 -165.86,27.36 -52.23,51.53 -62.66,122.81 -23.28,159.22 39.36,36.42 113.61,24.16 165.84,-27.37 52.22,-51.51 62.65,-122.81 23.3,-159.21zm-744.2 -318.04c53.51,3.3 95.98,65.42 94.83,138.78 -1.12,73.35 -45.44,130.17 -98.96,126.88 -53.53,-3.28 -95.98,-65.43 -94.83,-138.78 1.13,-73.35 45.44,-130.17 98.96,-126.88z"/>
 </g>
</svg>
